<mxfile host="app.diagrams.net" agent="Mozilla/5.0 (X11; Linux x86_64) AppleWebKit/537.36 (KHTML, like Gecko) Chrome/136.0.0.0 Safari/537.36" version="27.0.9">
  <diagram name="ページ1" id="VHxcVhe2u8rO0CamYZx4">
    <mxGraphModel dx="1354" dy="918" grid="1" gridSize="10" guides="1" tooltips="1" connect="1" arrows="1" fold="1" page="1" pageScale="1" pageWidth="827" pageHeight="1169" math="0" shadow="0">
      <root>
        <mxCell id="0" />
        <mxCell id="1" parent="0" />
        <mxCell id="n_T0wTp6pkuce-FMkaBn-15" value="Cloud_AWS" style="whiteSpace=wrap;strokeWidth=2;" vertex="1" parent="1">
          <mxGeometry x="971" y="760" width="310" height="345" as="geometry" />
        </mxCell>
        <mxCell id="n_T0wTp6pkuce-FMkaBn-16" value="Edge" style="whiteSpace=wrap;strokeWidth=2;" vertex="1" parent="1">
          <mxGeometry x="381" y="831" width="360" height="652" as="geometry" />
        </mxCell>
        <mxCell id="n_T0wTp6pkuce-FMkaBn-17" value="On_device_SW" style="whiteSpace=wrap;strokeWidth=2;" vertex="1" parent="1">
          <mxGeometry x="406" y="851" width="310" height="356" as="geometry" />
        </mxCell>
        <mxCell id="n_T0wTp6pkuce-FMkaBn-18" value="Xignage-Lite&#xa;(Raspberry Pi 4B)" style="whiteSpace=wrap;strokeWidth=2;" vertex="1" parent="1">
          <mxGeometry x="431" y="1242" width="260" height="78" as="geometry" />
        </mxCell>
        <mxCell id="n_T0wTp6pkuce-FMkaBn-19" value="Xignage-Pro&#xa;(Jetson Orin Nano)" style="whiteSpace=wrap;strokeWidth=2;" vertex="1" parent="1">
          <mxGeometry x="431" y="1370" width="260" height="78" as="geometry" />
        </mxCell>
        <mxCell id="n_T0wTp6pkuce-FMkaBn-20" value="signage-jetson&#xa;(bash scripts)" style="whiteSpace=wrap;strokeWidth=2;" vertex="1" parent="1">
          <mxGeometry x="431" y="886" width="260" height="78" as="geometry" />
        </mxCell>
        <mxCell id="n_T0wTp6pkuce-FMkaBn-21" value="signage-server&#xa;(Node.js)" style="whiteSpace=wrap;strokeWidth=2;" vertex="1" parent="1">
          <mxGeometry x="439" y="1014" width="244" height="54" as="geometry" />
        </mxCell>
        <mxCell id="n_T0wTp6pkuce-FMkaBn-22" value="signage-admin-ui&#xa;(React)" style="whiteSpace=wrap;strokeWidth=2;" vertex="1" parent="1">
          <mxGeometry x="437" y="1118" width="248" height="54" as="geometry" />
        </mxCell>
        <mxCell id="n_T0wTp6pkuce-FMkaBn-23" value="signage-aws-nodejs&#xa;(REST + WebSocket)" style="whiteSpace=wrap;strokeWidth=2;" vertex="1" parent="1">
          <mxGeometry x="996" y="927" width="260" height="78" as="geometry" />
        </mxCell>
        <mxCell id="n_T0wTp6pkuce-FMkaBn-24" value="QR SaaS&#xa;(発行・利用ログ)" style="whiteSpace=wrap;strokeWidth=2;" vertex="1" parent="1">
          <mxGeometry x="998" y="1155" width="255" height="54" as="geometry" />
        </mxCell>
        <mxCell id="n_T0wTp6pkuce-FMkaBn-25" value="店舗オーナー&#xa;(iOS / Android アプリ)" style="ellipse;aspect=fixed;strokeWidth=2;whiteSpace=wrap;" vertex="1" parent="1">
          <mxGeometry x="20" y="882" width="215" height="215" as="geometry" />
        </mxCell>
        <mxCell id="n_T0wTp6pkuce-FMkaBn-26" value="HTTP&#xa;(LAN)" style="curved=1;startArrow=none;endArrow=block;exitX=1;exitY=0.93;entryX=0;entryY=0.5;rounded=0;" edge="1" parent="1" source="n_T0wTp6pkuce-FMkaBn-25" target="n_T0wTp6pkuce-FMkaBn-22">
          <mxGeometry relative="1" as="geometry">
            <Array as="points">
              <mxPoint x="308" y="1145" />
            </Array>
          </mxGeometry>
        </mxCell>
        <mxCell id="n_T0wTp6pkuce-FMkaBn-27" value="REST" style="curved=1;startArrow=none;endArrow=block;exitX=0.98;exitY=0;entryX=0.36;entryY=0;rounded=0;" edge="1" parent="1" source="n_T0wTp6pkuce-FMkaBn-25" target="n_T0wTp6pkuce-FMkaBn-23">
          <mxGeometry relative="1" as="geometry">
            <Array as="points">
              <mxPoint x="308" y="800" />
              <mxPoint x="971" y="800" />
            </Array>
          </mxGeometry>
        </mxCell>
        <mxCell id="n_T0wTp6pkuce-FMkaBn-28" value="WebSocket&#xa;cmd push" style="curved=1;startArrow=none;endArrow=block;exitX=0.25;exitY=1;entryX=1;entryY=0.75;rounded=0;" edge="1" parent="1" source="n_T0wTp6pkuce-FMkaBn-23" target="n_T0wTp6pkuce-FMkaBn-21">
          <mxGeometry relative="1" as="geometry">
            <Array as="points">
              <mxPoint x="971" y="1058" />
              <mxPoint x="716" y="1058" />
            </Array>
          </mxGeometry>
        </mxCell>
        <mxCell id="n_T0wTp6pkuce-FMkaBn-29" value="WebSocket&#xa;status / list" style="curved=1;startArrow=none;endArrow=block;exitX=0.72;exitY=0;entryX=0;entryY=0.46;rounded=0;" edge="1" parent="1" source="n_T0wTp6pkuce-FMkaBn-21" target="n_T0wTp6pkuce-FMkaBn-23">
          <mxGeometry relative="1" as="geometry">
            <Array as="points">
              <mxPoint x="716" y="962" />
              <mxPoint x="971" y="962" />
            </Array>
          </mxGeometry>
        </mxCell>
        <mxCell id="n_T0wTp6pkuce-FMkaBn-30" value="QR 生成 / 利用ログ" style="curved=1;dashed=1;dashPattern=2 3;startArrow=none;endArrow=block;exitX=0.62;exitY=1;entryX=0;entryY=0.5;rounded=0;" edge="1" parent="1" source="n_T0wTp6pkuce-FMkaBn-21" target="n_T0wTp6pkuce-FMkaBn-24">
          <mxGeometry relative="1" as="geometry">
            <Array as="points">
              <mxPoint x="716" y="1182" />
            </Array>
          </mxGeometry>
        </mxCell>
      </root>
    </mxGraphModel>
  </diagram>
</mxfile>

